<svg width="18" height="18" viewBox="0 0 18 18" xmlns="http://www.w3.org/2000/svg">
    <path d="m17.007 0h-16.014a.993.993 0 0 0 -.993.993v16.014a.993.993 0 0 0 .993.993h8.628v-6.961h-2.343v-2.725h2.343v-2a3.274 3.274 0 0 1 3.494-3.591 19.925 19.925 0 0 1 2.092.106v2.43h-1.428c-1.13 0-1.35.534-1.35 1.322v1.73h2.7l-.351 2.725h-2.364v6.964h4.593a.993.993 0 0 0 .993-.993v-16.014a.993.993 0 0 0 -.993-.993z" fill="#4267b2" />
    <path d="m28.586 24.041v-6.961h2.349l.351-2.725h-2.7v-1.734c0-.788.22-1.322 1.35-1.322h1.443v-2.434a19.924 19.924 0 0 0 -2.095-.106 3.27 3.27 0 0 0 -3.491 3.591v2h-2.343v2.73h2.343v6.961z" fill="#fff" transform="translate(-16.172 -6.041)" />
</svg>